<svg
      xmlns="http://www.w3.org/2000/svg"
      version="1.1"
      viewBox="0 0 394 80"
    >
      <path
        transform="translate(764,587)"
        d="m0 0h9l3 4 2 8v11l-5 20-5 45-6 37-5 19-15 43-17 43-10 25-5 15-2 14v33l2 13 7 14 10 13 12 11 16 12 14 10 13 9 5 3 1-1 8-16 3-12 1-25-2-17-3-10 1-7 7-13 10-16 9-11 8-9 15-10 15-6 18-5 9-2h11l8 5 10 19 9 19 3 14v14l-3 24-3 13-9 11-11 8-10 8-5 5-8 13-11 23-3 6v3l3 1-1 13-4 18-1 21-2 13-3 11-2 23-1 42 1 33 2 15 4 18 4 19 11 32 19 40 13 25 14 24 18 27 15 22 10 15 10 16 8 16 2 6v14l-4 8-9 11-5 3-4 1h-17l-13-4-31-16-19-14-17-13-9-7-9-9-8-7-14-14-7-8-13-15-10-12-12-18-17-28-14-27-10-27-6-21-6-35-2-25v-25l1-16 8-38 15-50 15-42 6-17 1-8-3-5-4 1-6 15-7 14-7 15-9 23-13 42-10 40-3 32v20l5 49 12 54 8 24 10 22 21 36 10 14 8 10 12 13 9 11 9 9 8 7 8 8 11 9 14 12 16 12 21 14 16 8 12 5 13 3 8 1h19l12-3 11-6 8-8 5-10 2-8 1-11v-9l-2-11-12-26-8-14-11-15-10-15-14-22-18-27-16-26-14-27-8-19-8-25-6-30-2-20-3-84v-22l4-36 4-17v-17l2-11 19-12 18-11 13-10 14-11 30-28 7-7 11-14 10-15 9-15 5-11 3-16 1-20 1-64 2-23 4-18 11-23 14-24 11-23 8-18 6-7 9 2 4 4 3 8 4-2 10-11 12-16 3-2 5 1 1 5-3 10-8 16-14 25-12 19-5 9-12 18-6 12-2 8v22l3 19 7 27 5 21 2 21-2 19-4 17-9 21-8 16-8 14-10 14-11 16-13 18-24 32-12 17-9 14-6 10-5 13-2 10v10l3 11 8 15 17 28 12 20 17 25 13 18 9 12 20 25 22 26 10 11 7 8 8 8 7 8 15 14 10 10 8 7 13 12 12 11 28 24 14 11 14 9 10 9 1 2-3 3-12 5-10 5-18 12-12 6h-14l-8-1-20-1-13-2-10-4-8-5-10-9-7-6-7-8-15-15-9-11-9-10-9-11-11-14-14-18-9-12-12-17-10-15-9-15-11-17-9-15-13-23-14-25-9-17-6-11-3-3-7-1-5 4-4 11-4 17-1 23v26l9 26 7 15 4 10 9 16 10 15 11 16 14 21 12 16 15 23 26 46 13 27 10 23 11 28 8 20 10 40v17l-5 13-5 11-1 4v34l-2 1-8-4-16-12-8-8-7-10-6-8-6-5h-10l-4 5-10 40-8 26-11 25-10 18-12 16-11 13-9 11-4 8-1 4v9l4 10 11 12 8 7 7 10 3 8-2 9-6 8-6 5-8 4-8 2h-17l-5-4-5-10-8-5h-3v9l12 19 8 15 3 9 1 5v9l-4 9-7 8-11 7-21 11-13 11-11 9-7 7-14 10-9 3h-15l-8-5-5-6-2-7 3-10 8-10 13-11 18-13 14-14 5-10 1-4v-19l-3-15-4-5-7-3-6-1-22-1-32-5-27-7-26-9-17-9-7-7-5-10-1-4 1-13 7-29 1-7v-9l-3-6-8-6-14-5-15-5-20-9-11-7-10-10-7-11-3-8v-8l5-12 8-9 14-11 15-13 14-14 10-13 7-12 9-20 6-21 3-19 1-10 1-29v-155l2-19 7-28 7-24 2-13v-35l-4-35-6-32-1-19-1-72-3-15-8-26-13-30-14-38-8-24-4-22-1-9v-22l3-20 5-15 16-32 12-19 25-40 20-34 5-14 2-11v-58l3-12 7-13 8-9 13-4zm25 406 1 5v7l-2 4v13l4 8 8 7 9 4h13l11-4 10-7 1-3-4-1v-3h-23l-7-3-6-5-10-15-3-6zm-6 2 2 4 2-2-1-2zm-6 2-1 5 2-2zm74 23-6 3 1 2 7-4z"
        fill="#030A82"
      />
      <path
        transform="translate(890,88)"
        d="m0 0h6l5 6 4 13 8 42 3 24 1 12v40l-3 21-8 28-11 29-13 25-12 19-13 15-11 10-13 10-17 8-9 1-5-2-1-2v-44l2-27 4-21 13-45 9-32 2-14-7 3-10 11-7 10-12 25-7 21-6 27-4 26-3 46-1 8-4 1-9-6-6-7-9-20-7-21-5-22-3-23v-16l3-16 11-33 9-19 10-15 11-14 11-12 5-6 8-7 12-11 15-11 21-13 25-14 15-7z"
        fill="#24AB61"
      />
      <path
        transform="translate(446 1e3)"
        d="m0 0h47l23 3 24 7 15 6 14 8 6 6v3l-62 4-28 4-45 12-24 8-16 8-18 10-13 10-3 4-1 4 6-3h2l-3 6 11-2 36-15 22-7 31-8 34-6 21-5 10-1h50l3 3v8l-3 6-10 13-5 6-16 14-17 12-14 8-16 8-20 9-30 10-28 7-21 3-12 1h-65l-32-2-38-5-7-3-2-2 1-9 6-12 16-23 8-12 9-11 4-5h2l2-4 4-4h2v-2l8-7 12-11 13-10 17-11 23-12 13-6 19-6 20-5z"
        fill="#24AB61"
      />
      <path
        transform="translate(354,145)"
        d="m0 0h24l22 3 30 6 27 8 29 11 18 8 18 10 16 12 3 2v2l4 2 7 7 9 11 12 16 10 17 8 19 8 28 2 12v15l-2 9-7 8-4 1-5-6-6-14-13-20-10-16-11-14-9-10-7-8-8-7-15-13-13-10-20-12-10-3h-8l1 6 8 9 10 8 12 11 10 10 9 11 12 14 9 11 9 10 12 16 13 20 11 16 2 6-4 7-3 2-5 1-17-1-16-4-30-13-17-9-24-16-13-11-10-9-16-16-11-14-10-14-14-24-8-15-8-19-8-23-7-21-1-5v-13z"
        fill="#24AB61"
      />
      <path
        transform="translate(1558,352)"
        d="m0 0h37l23 2 40 8 8 3 1 4-5 12-10 16-13 16-9 11-10 11-7 8-22 22-18 13-15 9-27 14-33 13-36 10-16 3h-22l-17-4-9-6-1-6 6-7 8-7 11-10 26-20 11-7 21-13 22-13 17-10 11-7 5-2v-2l-14-2-23 6-24 11-19 12-14 9-16 12-11 9-9 7-14 13-5 3-4-1-4-4 1-9 4-17 8-16 7-11 11-14 15-16 9-8 17-12 16-9 23-11 15-5 25-5z"
        fill="#24AB61"
      />
      <path
        transform="translate(1645,634)"
        d="m0 0h41l29 2 28 5 27 5 3 1v19l-9 3-11 12-9 11-11 13-11 11-7 8-12 11-13 11-16 11-17 10-22 11-21 8-33 10-24 5-13 2h-28l-12-3-8-4-3-3-1-7 5-6 18-13 13-10 20-12 10-7 29-17 28-15 15-9 6-4h2v-2l6-3h2v-3l-24 4-24 5-16 6-22 11-15 9-17 12-19 14-17 12-8 8-3 2h-3l-2-4v-11l6-21 8-14 7-9 9-10 7-8 11-10 17-12 15-9 18-10 16-7 15-5 11-2z"
        fill="#24AB61"
      />
      <path
        transform="translate(1260,146)"
        d="m0 0h18l3 3 1 3v15l-3 19-9 37-9 24-12 26-9 15-12 16-9 10-7 8-21 21-11 9-16 11-19 10-23 8-16 2-6-3-2-3v-6l10-22 8-16 15-26 9-14 13-16 15-20 13-20 3-5-11 3-11 6-10 9-13 12-9 11-12 16-10 17-12 22-5 10-8 18-5 8-5-2-5-9-3-16v-18l3-24 6-21 8-18 8-15 11-16 13-14 11-9 15-11 25-14 27-12 35-11 22-6z"
        fill="#24AB61"
      />
      <path
        transform="translate(247,702)"
        d="m0 0h20l18 2 27 6 18 6 25 11 19 10 12 11 4 9v6l-12-3-25-6-21-3-25-2h-34l-32 2-27 5-9 4h-2l-2 5-4 5h8l6 1h9l21-2 28-1 25 1 52 4 27 4 14 3 3 2v7l-7 11-8 7-15 8-25 10-28 9-24 6-12 2-11 1h-33l-21-3-50-14-20-6-30-11-24-9-6-4-1-2 5-8 12-11 11-9 14-12 18-13 17-10 26-12 18-7 31-8z"
        fill="#24AB61"
      />
      <path
        transform="translate(1356,691)"
        d="m0 0h18l28 2 14 3 8 4 2 3-1 7-7 11-11 12-9 10-7 8-17 17-16 12-21 12-24 11-28 9-8 1h-26l-7-2-6-8 1-5 8-6 9-7 8-7 24-16 18-11 17-10 8-6 3-4-15 2-12 5-14 8-18 10-12 8-16 12-8 8-8 6-3-9v-9l4-11 8-14 10-12 6-8 11-9 14-9 19-9 13-4 16-3z"
        fill="#25AB61"
      />
      <path
        transform="translate(1464,936)"
        d="m0 0h31l18 3 20 6 16 8 18 12 10 8 17 17 18 22 5 10v5l-5 4-17 3-52 7h-12l-20-2-39-8-16-6-30-14-10-7-10-10-5-7-2-6 1-5 40 1 20 2 20 4 43 8h13l2-3-5-2-14-8-28-8-21-4-27-5-10-1-27-1 4-6 9-7 16-6 17-3z"
        fill="#24AB61"
      />
      <path
        transform="translate(1237,1078)"
        d="m0 0h25l28 4 24 9 12 6 14 10 13 12 9 10 12 17 12 21 6 12 3 9v8l-4 4-4 1h-24l-35-4-24-4-15-4-19-8-21-11-11-7-12-9-10-9-9-9-9-12-3-6v-7l3-6h3l12 5 20 4 36 12 22 9 18 9 15 3-4-6-12-10-13-8-16-8-21-10-15-6-21-5-8-2h-7l2-4 8-5 9-3z"
        fill="#24AB61"
      />
      <path
        transform="translate(275,408)"
        d="m0 0h22l26 3 23 7 18 8 16 10 14 11 7 8 11 16 8 15 4 12 1 9-3 8h-4l-10-11-6-7-3-2v-2l-4-2-8-8-13-10-14-9-23-11-10-3h-4l1 5 11 11 14 11 15 11 22 18 15 15 11 7-1 5-6 5-4 1h-18l-17-3-15-5-23-11-19-11-17-12-11-9-9-9-11-14-13-20-8-10-6-12 1-7 8-4 14-3z"
        fill="#24AB61"
      />
      <path
        transform="translate(904,520)"
        d="m0 0 6 1 10 8 13 12 8 8 15 20 8 13 8 16 5 19 1 6 1 21-2 13-4 14-8 17-9 12-7 7-4 2h-7l3-9 4-11 1-7-1-31-3-23-4-12-5-10h-2l-1 4v57l-5 32-4 11-4 3-6-1-6-4-8-9-9-14-5-11-6-21-4-23-1-10v-9l3-23 4-18 11-33 6-11 6-5z"
        fill="#24AB61"
      />
      <path
        transform="translate(536,500)"
        d="m0 0 16 1 24 4 22 6 20 7 15 8 19 14 9 8 10 13 7 12 5 14 4 16v19l-5 8-8 7-6 7-6 3h-11l-15-3-16-8-11-7-10-8-10-9-11-9-11-12-10-14-9-15-12-28-6-19-1-8 3-5zm69 52 1 7 7 9 11 13 14 15 11 15 14 17 8 7 4-2 2-3-1-10-7-13-11-14-11-12-7-7-5-6-21-14-5-2z"
        fill="#24AB61"
      />
      <path
        transform="translate(1303,381)"
        d="m0 0h13l6 3 3 5-1 9-4 9-10 20-7 11-9 12-11 12-10 9-13 10-19 11-14 6-4 1h-14l-5-4-3-9 2-5 8-8 8-7 8-9 6-10 2-3-11 6-5 4-5 9-4 10-7 7-3 2-4-1-4-7-1-3v-14l3-13 6-10 8-10 8-9 8-7 10-8 16-8 21-6 15-3z"
        fill="#26AB62"
      />
      <path
        transform="translate(1253,901)"
        d="m0 0h19l15 3 13 5 23 12 10 9 1 3-5 5-20 11-19 7-17 4-14 2h-20l-19-3-13-4-5-5-1-2v-14l3-8 9-10 14-8 10-4z"
        fill="#25AB62"
      />
      <path
        transform="translate(504,705)"
        d="m0 0h24l15 4 16 8 11 8 12 12 3 6-1 7-7 10-6 4h-14l-16-4-16-7-10-7-14-12-10-10-4-6 1-5 5-4z"
        fill="#24AB61"
      />
      <path
        transform="translate(455,857)"
        d="m0 0h17l10 3 8 7 3 5 1 8-6 7-16 8-11 4-12 2h-30l-12-3-5-5 3-7 7-8 14-10 15-7z"
        fill="#26AC62"
      />
      <path
        transform="translate(1014,439)"
        d="m0 0 8 1 9 8 8 13 4 10 1 5v22l-3 8-6 7-11 4h-8l-8-4-6-10-4-12-1-5v-14l5-16 6-12z"
        fill="#25AB62"
      />
      <path
        transform="translate(886,2030)"
        d="m0 0h8l17 5 16 8 5 5h-73l2-6 4-5 10-5z"
        fill="#0B1286"
      />
      <path
        transform="translate(886,2030)"
        d="m0 0h8l17 5 16 8 5 5h-23l-1-4-9-3v-2l-7-1-2-4h-6l-2-1h-5l1-2z"
        fill="#FDFDFD"
      />
      <path
        transform="translate(1631,690)"
        d="m0 0h7l-3 3-4 2-12 1 4-4z"
        fill="#30AF69"
      />
      <path
        transform="translate(1318,738)"
        d="m0 0 2 1-16 9-8 5-3-1 17-10z"
        fill="#BDE5CF"
      />
      <path
        transform="translate(1176,235)"
        d="m0 0h4v3l-8 6-3 2 2-6z"
        fill="#2EAF68"
      />
      <path
        transform="translate(1089,640)"
        d="m0 0 4 8 2 2-5 1-2-6z"
        fill="#FDFDFD"
      />
      <path
        transform="translate(1527,414)"
        d="m0 0 3 1-9 4-2-1 4-3z"
        fill="#A1DABB"
      />
      <path transform="translate(456,219)" d="m0 0 5 5-4-1z" fill="#4FBB80" />
      <path transform="translate(1220,458)" d="m0 0 1 2-3 3z" fill="#A0D9BA" />
      <path transform="translate(1290,754)" d="m0 0 2 1z" fill="#FDFDFD" />
      <path transform="translate(1517,419)" d="m0 0 2 1z" fill="#FDFDFD" />
      <path transform="translate(882,1860)" d="m0 0" fill="#FDFDFD" />
      <path transform="translate(880,1857)" d="m0 0" fill="#FDFDFD" />
      <path transform="translate(879,1856)" d="m0 0" fill="#FDFDFD" />
      <path transform="translate(1310,1139)" d="m0 0" fill="#FDFDFD" />
      <path transform="translate(1309,1138)" d="m0 0" fill="#FDFDFD" />
      <path transform="translate(1307,1137)" d="m0 0" fill="#FDFDFD" />
      <path transform="translate(1305,1136)" d="m0 0" fill="#FDFDFD" />
      <path transform="translate(1527,984)" d="m0 0" fill="#24AB61" />
      <path transform="translate(1282,759)" d="m0 0" fill="#FDFDFD" />
      <path transform="translate(1289,755)" d="m0 0" fill="#FDFDFD" />
      <path transform="translate(1292,753)" d="m0 0" fill="#FDFDFD" />
      <path transform="translate(1320,737)" d="m0 0" fill="#FDFDFD" />
      <path transform="translate(1322,736)" d="m0 0" fill="#FDFDFD" />
      <path transform="translate(1324,735)" d="m0 0" fill="#FDFDFD" />
      <path transform="translate(1326,734)" d="m0 0" fill="#FDFDFD" />
      <path transform="translate(1221,457)" d="m0 0" fill="#FDFDFD" />
    </svg>